<?xml version="1.0" encoding="UTF-8"?>
<!DOCTYPE svg PUBLIC "-//W3C//DTD SVG 1.1//EN" "http://www.w3.org/Graphics/SVG/1.1/DTD/svg11.dtd">
<svg version="1.1" xmlns="http://www.w3.org/2000/svg" xmlns:xlink="http://www.w3.org/1999/xlink" x="0" y="0" width="15" height="15" viewBox="0, 0, 15, 15">
  <g id="Layer_1">
    <path d="M13.491,4.621 C13.491,4.621 10.337,1.467 10.337,1.467 C10.337,1.467 11.182,0.594 11.182,0.594 C11.182,0.594 11.492,0.34 11.914,0.312 C12.337,0.284 12.562,0.369 12.9,0.707 C13.238,1.044 14.646,2.312 14.646,2.621 C14.646,2.931 14.815,3.044 14.533,3.523 C14.252,4.001 13.548,4.564 13.491,4.621 z"/>
    <path d="M0.876,11.069 C0.876,11.069 3.945,14.111 3.945,14.111 C3.945,14.111 0.735,14.589 0.735,14.589 C0.735,14.589 0.284,14.702 0.425,14.195 C0.566,13.688 0.904,11.041 0.876,11.069 z"/>
    <path d="M4.367,13.773 C4.367,13.773 13.041,5.015 13.041,5.015 C13.041,5.015 9.915,1.917 9.915,1.917 C9.915,1.917 1.27,10.591 1.27,10.591 C1.27,10.591 4.339,13.801 4.367,13.773 z"/>
  </g>
</svg>
